<?xml version="1.0" encoding="UTF-8"?>
<!DOCTYPE svg PUBLIC "-//W3C//DTD SVG 1.1//EN" "http://www.w3.org/Graphics/SVG/1.1/DTD/svg11.dtd">
<!-- Creator: CorelDRAW X8 -->
<svg xmlns="http://www.w3.org/2000/svg" xml:space="preserve" width="136.125mm" height="71.3111mm" version="1.1" style="shape-rendering:geometricPrecision; text-rendering:geometricPrecision; image-rendering:optimizeQuality; fill-rule:evenodd; clip-rule:evenodd"
viewBox="0 0 13613 7131"
 xmlns:xlink="http://www.w3.org/1999/xlink">
 <defs>
  <style type="text/css">
   <![CDATA[
    .fil1 {fill:#00698C;fill-rule:nonzero}
    .fil0 {fill:#59B200;fill-rule:nonzero}
   ]]>
  </style>
 </defs>
 <g id="Camada_x0020_1">
  <metadata id="CorelCorpID_0Corel-Layer"/>
  <g id="_2639264547152">
   <path class="fil0" d="M592 974l1302 0c80,0 156,16 229,48 73,31 136,73 189,126 53,53 95,116 127,189 31,73 47,150 47,229l0 1894 -358 0 0 -1894c0,-66 -22,-122 -67,-166 -45,-45 -101,-68 -167,-68l-1302 0c-60,0 -112,20 -157,60 -45,40 -70,90 -77,149l0 25 0 1894 -358 0 0 -1894 0 -45 0 -1511 0 -10 358 0 0 10 0 1014c36,-16 74,-29 112,-37 38,-8 79,-13 122,-13z"/>
   <path id="1" class="fil0" d="M5260 2898c7,60 32,111 75,152 43,42 94,64 154,67l0 353c-80,0 -154,-15 -224,-45 -70,-29 -133,-71 -189,-124 -53,50 -114,89 -184,117 -69,28 -142,42 -219,42l-1302 0c-80,0 -155,-15 -226,-47 -72,-31 -134,-74 -187,-127 -53,-53 -95,-115 -127,-186 -31,-71 -47,-147 -47,-226l0 -1298c0,-80 16,-156 47,-229 32,-73 74,-136 127,-189 53,-53 115,-95 187,-126 71,-32 146,-48 226,-48l1302 0c80,0 155,16 227,48 71,31 133,73 186,126 53,53 95,116 127,189 31,73 47,149 47,229l0 1298 0 24zm-358 -1322c0,-66 -22,-122 -67,-167 -45,-44 -99,-67 -162,-67l-1302 0c-63,0 -117,23 -162,67 -45,45 -67,101 -67,167l0 1298c0,66 22,121 67,166 45,45 99,67 162,67l1302 0c60,0 111,-20 155,-62 43,-41 67,-92 74,-151l0 -10 0 -10 0 -1298z"/>
   <path id="2" class="fil0" d="M8044 1566l0 1303c0,83 -16,160 -47,231 -32,71 -74,133 -127,186 -53,53 -116,96 -189,127 -73,32 -149,47 -228,47l-1303 0c-83,0 -160,-15 -231,-47 -71,-31 -134,-74 -187,-127 -53,-53 -95,-115 -126,-186 -32,-71 -48,-148 -48,-231l0 -1303c0,-79 16,-156 48,-229 31,-73 73,-136 126,-189 53,-53 116,-95 187,-126 71,-32 148,-48 231,-48l1303 0c79,0 157,17 233,50l0 -1024 358 0 0 1546 0 20zm-358 0l0 -15c-3,-59 -27,-111 -72,-154 -45,-43 -98,-65 -161,-65l-1303 0c-66,0 -122,23 -167,68 -44,44 -67,100 -67,166l0 1303c0,66 23,121 67,166 45,45 101,67 167,67l1303 0c66,0 121,-22 166,-67 45,-45 67,-100 67,-166l0 -1303z"/>
   <path id="3" class="fil0" d="M10237 974c79,0 155,16 228,48 73,31 136,73 189,126 53,53 96,116 127,187 32,71 47,147 47,226l0 274c-3,79 -21,153 -54,221 -33,68 -77,127 -130,176 -53,50 -114,90 -184,120 -69,29 -144,44 -223,44l-1537 0 0 473c0,66 23,121 68,166 44,45 100,67 166,67l1303 0c66,0 122,-22 166,-67 45,-45 67,-100 67,-166l358 0c0,83 -15,160 -47,231 -31,71 -74,133 -127,186 -53,53 -116,96 -189,127 -73,32 -149,47 -228,47l-1303 0c-83,0 -160,-15 -231,-47 -71,-31 -133,-74 -186,-127 -54,-53 -96,-115 -127,-186 -32,-71 -48,-148 -48,-231l0 -1303c0,-79 16,-156 48,-229 31,-73 73,-136 127,-189 53,-53 115,-95 186,-126 71,-32 148,-48 231,-48l1303 0zm233 592c0,-66 -22,-122 -67,-166 -44,-45 -100,-68 -166,-68l-1303 0c-66,0 -122,23 -166,68 -45,44 -68,100 -68,166l0 472 1537 0c63,0 117,-21 161,-64 45,-43 69,-96 72,-159l0 -249z"/>
   <path id="4" class="fil0" d="M13255 2625c-4,-63 -28,-116 -73,-159 -44,-43 -98,-65 -161,-65l-1313 0 0 -5c-79,0 -154,-15 -223,-47 -70,-31 -131,-74 -184,-127 -53,-53 -96,-114 -127,-184 -32,-69 -47,-144 -47,-223l0 -5 0 -55 0 -189c0,-146 29,-259 89,-340 60,-82 128,-141 204,-177 86,-43 186,-68 298,-75l1303 0c79,0 156,16 229,48 72,31 135,73 188,126 54,53 96,116 127,189 32,73 47,150 47,229l-357 0c0,-66 -23,-122 -68,-166 -44,-45 -100,-68 -166,-68l-1303 0c-43,4 -83,14 -119,30 -30,17 -56,41 -80,72 -23,32 -34,76 -34,132l0 189 0 55c0,63 22,117 67,161 44,45 98,67 161,67l0 5 1308 0c79,0 155,15 226,45 71,30 134,71 189,124 55,53 98,115 129,184 32,70 47,145 47,224l0 5 0 244c0,83 -15,160 -47,231 -31,71 -73,133 -127,186 -53,53 -116,96 -188,127 -73,32 -150,47 -229,47l-1303 0c-83,0 -160,-15 -231,-47 -71,-31 -133,-74 -186,-127 -53,-53 -96,-115 -127,-186 -32,-71 -47,-148 -47,-231l358 0c0,66 22,121 67,166 44,45 100,67 166,67l1303 0c66,0 122,-22 166,-67 45,-45 68,-100 68,-166l0 -244z"/>
   <path class="fil1" d="M5345 6544c-24,77 -53,150 -87,222 -35,71 -77,134 -127,189 -50,54 -108,97 -174,129 -66,31 -141,47 -224,47l-25 0 -25 0c-86,0 -161,-16 -226,-47 -64,-32 -122,-75 -171,-129 -50,-55 -93,-118 -130,-189 -36,-72 -66,-145 -89,-222l-597 -1899 373 0 597 1899c20,60 49,113 87,160 38,46 90,69 156,69l25 0 25 0c66,0 119,-23 157,-69 38,-47 67,-100 87,-160l596 -1899 373 0 597 1899c20,60 49,113 87,160 38,46 90,69 156,69l25 0 25 0c66,0 119,-23 157,-69 38,-47 67,-100 87,-160l596 -1899 373 0 -601 1899c-24,77 -53,150 -87,222 -35,71 -77,134 -127,189 -50,54 -108,97 -174,129 -66,31 -141,47 -224,47l-25 0 -25 0c-86,0 -161,-16 -226,-47 -64,-32 -122,-75 -171,-129 -50,-55 -93,-118 -130,-189 -36,-72 -66,-145 -89,-222l-413 -1312 -412 1312z"/>
   <path id="1" class="fil1" d="M10242 4645c79,0 155,16 228,47 73,32 136,74 189,127 53,53 96,115 127,187 32,71 47,146 47,226l0 273c-3,80 -21,154 -54,222 -34,68 -77,126 -130,176 -53,50 -114,90 -184,119 -69,30 -144,45 -223,45l-1537 0 0 472c0,67 23,122 68,167 44,45 100,67 166,67l1303 0c66,0 122,-22 166,-67 45,-45 67,-100 67,-167l358 0c0,83 -15,160 -47,232 -31,71 -74,133 -127,186 -53,53 -116,95 -189,127 -73,31 -149,47 -228,47l-1303 0c-83,0 -160,-16 -231,-47 -71,-32 -133,-74 -187,-127 -53,-53 -95,-115 -126,-186 -32,-72 -48,-149 -48,-232l0 -1302c0,-80 16,-156 48,-229 31,-73 73,-136 126,-189 54,-53 116,-95 187,-127 71,-31 148,-47 231,-47l1303 0zm233 592c0,-66 -22,-122 -67,-167 -44,-44 -100,-67 -166,-67l-1303 0c-66,0 -122,23 -166,67 -45,45 -68,101 -68,167l0 472 1537 0c63,0 117,-21 161,-64 45,-44 69,-97 72,-160l0 -248z"/>
   <path id="2" class="fil1" d="M13026 4650c79,0 155,16 226,47 71,32 133,74 186,127 54,53 96,115 127,187 32,71 48,146 48,226l0 1302c0,83 -16,160 -48,232 -31,71 -73,133 -127,186 -53,53 -115,95 -186,127 -71,31 -147,47 -226,47l-1303 0c-83,0 -160,-16 -231,-47 -71,-32 -133,-74 -186,-127 -53,-53 -96,-115 -127,-186 -32,-72 -47,-149 -47,-232l0 -1302 0 -20 0 -1541 358 0 0 1019c69,-30 147,-45 233,-45l1303 0zm234 587c0,-66 -23,-122 -68,-167 -44,-44 -100,-67 -166,-67l-1303 0c-63,0 -117,22 -161,65 -45,43 -69,96 -72,159l0 10 0 1302c0,67 22,122 67,167 44,45 100,67 166,67l1303 0c66,0 122,-22 166,-67 45,-45 68,-100 68,-167l0 -1302z"/>
  </g>
 </g>
</svg>
